<?xml version="1.0" encoding="UTF-8" standalone="no"?>
<svg
   version="1.0"
   width="730.76575cm"
   height="1000cm"
   viewBox="0 0 20714.619 28346.457"
   preserveAspectRatio="xMidYMid"
   id="svg10"
   sodipodi:docname="Black_skull.svg"
   inkscape:version="1.2.2 (732a01da63, 2022-12-09)"
   xmlns:inkscape="http://www.inkscape.org/namespaces/inkscape"
   xmlns:sodipodi="http://sodipodi.sourceforge.net/DTD/sodipodi-0.dtd"
   xmlns="http://www.w3.org/2000/svg"
   xmlns:svg="http://www.w3.org/2000/svg">
  <defs
     id="defs14" />
  <sodipodi:namedview
     id="namedview12"
     pagecolor="#505050"
     bordercolor="#eeeeee"
     borderopacity="1"
     inkscape:showpageshadow="0"
     inkscape:pageopacity="0"
     inkscape:pagecheckerboard="0"
     inkscape:deskcolor="#505050"
     inkscape:document-units="cm"
     showgrid="false"
     inkscape:zoom="0.01"
     inkscape:cx="9100"
     inkscape:cy="21450"
     inkscape:window-width="1849"
     inkscape:window-height="1174"
     inkscape:window-x="62"
     inkscape:window-y="-9"
     inkscape:window-maximized="1"
     inkscape:current-layer="svg10" />
  <metadata
     id="metadata2">
Created by potrace 1.10, written by Peter Selinger 2001-2011
</metadata>
  <g
     transform="matrix(3.4358299,0,0,-3.4358299,-5122.8224,29541.265)"
     fill="#000000"
     stroke="none"
     id="g8"
     style="stroke-width:0.0291051">
    <path
       d="m 4139,8584 c -9,-11 -42,-14 -134,-14 -97,0 -125,-3 -135,-15 -9,-11 -35,-15 -105,-15 -70,0 -96,-4 -105,-15 -9,-10 -32,-15 -75,-15 -43,0 -66,-5 -75,-15 -9,-10 -32,-15 -74,-15 -39,0 -69,-5 -82,-15 -10,-8 -38,-15 -60,-15 -24,0 -47,-6 -54,-15 -7,-8 -27,-15 -45,-15 -18,0 -38,-7 -45,-15 -7,-8 -27,-15 -45,-15 -18,0 -38,-7 -45,-15 -8,-9 -29,-15 -56,-15 -40,0 -117,-30 -130,-51 -3,-5 -18,-9 -34,-9 -28,0 -164,-63 -176,-81 -3,-5 -16,-9 -28,-9 -13,0 -29,-6 -35,-14 -7,-8 -23,-17 -36,-20 -14,-4 -25,-11 -25,-16 0,-6 -7,-10 -15,-10 -27,0 -100,-44 -137,-82 -20,-21 -43,-38 -51,-38 -9,0 -43,-27 -77,-60 -34,-33 -67,-60 -74,-60 -15,0 -126,-112 -126,-126 0,-6 -34,-46 -75,-89 -41,-43 -75,-83 -75,-89 0,-6 -18,-31 -40,-56 -22,-25 -59,-83 -82,-130 -24,-47 -53,-95 -65,-108 -15,-15 -23,-35 -23,-58 0,-22 -6,-37 -15,-40 -8,-4 -15,-13 -15,-21 0,-8 -13,-38 -30,-68 -16,-30 -30,-67 -30,-83 0,-16 -7,-35 -15,-42 -8,-7 -15,-24 -15,-39 0,-14 -7,-35 -15,-45 -8,-11 -15,-41 -15,-67 0,-29 -6,-51 -15,-59 -10,-9 -15,-32 -15,-75 0,-42 -5,-66 -14,-74 -12,-10 -15,-63 -15,-306 0,-243 3,-296 15,-306 10,-8 14,-34 14,-89 0,-57 4,-81 15,-90 9,-8 15,-30 15,-60 0,-30 6,-52 15,-60 9,-8 15,-30 15,-60 0,-30 6,-52 15,-60 8,-7 15,-29 15,-50 0,-24 5,-40 15,-44 9,-3 15,-18 15,-39 0,-19 7,-40 15,-47 8,-7 15,-25 15,-41 0,-28 34,-104 51,-115 5,-3 9,-13 9,-23 0,-10 7,-24 15,-31 8,-7 15,-23 15,-35 0,-13 7,-25 15,-29 8,-3 15,-16 15,-30 0,-14 4,-27 9,-31 6,-3 22,-30 36,-61 14,-30 36,-66 48,-80 12,-14 24,-34 27,-45 8,-34 25,-22 28,20 2,22 10,45 18,51 21,19 21,442 -1,460 -10,9 -15,32 -15,74 0,39 -5,69 -15,82 -8,10 -15,31 -15,45 0,14 -7,34 -15,45 -8,10 -15,31 -15,45 0,14 -7,34 -15,45 -8,10 -15,31 -15,45 0,14 -7,34 -15,45 -8,10 -15,38 -15,60 0,24 -6,47 -15,54 -12,10 -15,37 -15,120 0,83 -3,110 -15,120 -22,18 -22,242 0,260 10,9 15,32 15,77 0,47 4,65 15,69 8,4 15,14 15,23 0,10 13,33 30,51 16,18 30,39 30,45 0,18 44,55 66,55 11,0 53,-34 97,-78 57,-57 77,-84 77,-104 0,-14 -4,-28 -8,-30 -4,-1 -18,-22 -30,-46 -21,-40 -22,-56 -22,-241 0,-164 3,-201 15,-211 10,-9 15,-32 15,-74 0,-39 5,-69 15,-82 8,-10 15,-31 15,-45 0,-14 7,-34 15,-45 8,-10 15,-31 15,-45 0,-14 7,-34 15,-45 8,-10 15,-31 15,-45 0,-14 7,-34 15,-45 8,-10 15,-38 15,-60 0,-24 6,-47 15,-54 12,-10 15,-38 15,-135 0,-97 3,-125 15,-135 8,-7 15,-25 15,-40 0,-15 -7,-33 -15,-40 -12,-10 -15,-43 -15,-180 0,-137 -3,-170 -15,-180 -11,-9 -15,-35 -15,-105 0,-70 -4,-96 -15,-105 -10,-9 -15,-32 -15,-75 0,-43 -5,-66 -15,-75 -10,-9 -15,-32 -15,-75 0,-43 -5,-66 -15,-75 -11,-9 -15,-33 -15,-90 0,-57 -4,-81 -15,-90 -11,-10 -15,-35 -15,-110 0,-75 4,-100 15,-110 11,-9 15,-35 15,-104 0,-66 4,-98 15,-112 8,-10 15,-31 15,-45 0,-15 7,-32 15,-39 8,-7 15,-25 15,-41 0,-16 10,-48 22,-71 27,-53 141,-168 167,-168 11,0 21,-4 23,-8 6,-15 149,-82 175,-82 13,0 31,-7 39,-15 9,-8 29,-15 45,-15 17,0 37,-7 45,-15 9,-8 30,-15 48,-15 19,0 39,-7 46,-15 7,-8 27,-15 46,-15 18,0 36,-4 39,-10 3,-5 44,-28 92,-51 47,-23 97,-53 111,-66 14,-13 30,-23 36,-23 6,0 26,-14 45,-30 18,-17 40,-30 48,-30 17,0 113,-96 113,-113 0,-7 18,-32 40,-56 43,-48 110,-175 110,-207 0,-11 7,-29 15,-40 9,-12 14,-43 15,-89 0,-44 5,-78 14,-91 12,-17 12,-22 0,-39 -8,-10 -14,-30 -14,-44 0,-14 -14,-46 -30,-71 -29,-43 -30,-49 -30,-157 0,-124 4,-143 30,-143 10,0 23,-7 30,-15 7,-8 23,-15 37,-15 13,0 26,-7 29,-15 4,-8 14,-15 23,-15 10,0 26,-7 37,-15 10,-8 31,-15 45,-15 15,0 32,-7 39,-15 7,-8 19,-15 27,-15 7,0 25,-7 38,-16 13,-8 36,-14 52,-12 l 28,3 7,120 c 5,66 5,167 2,225 -7,127 -4,132 83,128 l 58,-3 5,-250 5,-250 43,-3 c 23,-2 42,-7 42,-11 0,-4 21,-8 48,-9 26,-1 96,-4 156,-7 63,-4 112,-3 117,2 8,8 10,97 7,430 0,69 3,73 75,73 40,0 68,-5 75,-12 6,-8 10,-106 11,-248 0,-129 1,-238 1,-242 0,-16 113,-8 132,9 15,13 39,16 128,15 60,0 112,3 115,8 3,5 6,113 7,242 0,135 5,238 11,246 13,16 123,16 134,-1 4,-6 8,-113 8,-237 v -225 l 40,2 c 75,5 100,10 183,38 65,22 88,36 108,63 15,18 39,38 55,44 l 29,10 v 124 c 0,120 -1,126 -30,177 -25,46 -30,64 -30,124 0,51 4,74 15,83 10,9 15,32 15,75 0,43 5,66 15,75 8,7 15,28 15,47 0,21 6,36 15,39 8,4 15,15 15,26 0,12 14,34 30,50 17,15 30,35 30,43 0,17 158,175 175,175 7,0 28,13 46,30 19,16 39,30 45,30 6,0 32,20 57,45 35,33 55,45 77,45 20,0 39,10 58,30 20,20 39,30 59,30 16,0 38,7 49,15 10,8 31,15 45,15 14,0 34,7 45,15 10,8 31,15 45,15 36,0 95,26 102,45 4,9 19,15 36,15 30,0 113,36 119,52 2,4 12,8 23,8 10,0 32,14 47,30 16,16 36,30 44,30 35,0 128,152 128,209 0,16 7,34 15,41 8,7 15,26 15,42 0,16 7,36 15,44 12,12 15,42 15,138 0,98 3,126 15,136 19,16 19,54 0,70 -11,9 -15,35 -15,105 0,70 -4,96 -15,105 -11,9 -15,33 -15,90 0,57 -4,81 -15,90 -10,9 -15,32 -15,75 0,43 -5,66 -15,75 -11,9 -15,33 -15,90 0,57 -4,81 -15,90 -12,10 -15,38 -15,135 0,97 -3,125 -15,135 -12,10 -15,38 -15,130 0,92 3,120 15,130 12,10 15,37 15,120 0,83 3,110 15,120 9,7 15,30 15,54 0,22 7,50 15,60 8,11 15,31 15,45 0,14 7,35 15,45 8,11 15,31 15,45 0,14 7,35 15,45 8,11 15,34 15,52 0,17 7,37 15,44 10,9 15,32 15,75 0,43 5,66 15,75 12,10 15,46 15,201 0,153 -3,190 -15,203 -8,8 -15,22 -15,30 0,9 -13,29 -30,44 -16,16 -30,32 -30,35 0,8 188,197 196,197 11,0 104,-100 104,-113 0,-7 7,-22 15,-33 8,-10 15,-26 15,-35 0,-9 7,-19 15,-23 13,-5 15,-48 15,-304 0,-254 -2,-301 -15,-312 -10,-9 -15,-32 -15,-75 0,-43 -5,-66 -15,-75 -8,-7 -15,-28 -15,-47 0,-21 -6,-36 -15,-39 -8,-4 -15,-14 -15,-23 0,-9 -7,-25 -15,-35 -8,-11 -15,-31 -15,-45 0,-14 -7,-35 -15,-45 -10,-13 -15,-43 -15,-82 0,-43 -5,-65 -15,-74 -13,-11 -15,-49 -13,-263 3,-219 5,-251 19,-260 13,-8 22,-4 43,19 14,16 26,34 26,40 0,6 10,22 23,36 26,28 67,102 67,120 0,7 10,22 23,33 23,20 67,96 67,116 0,6 7,17 15,25 8,9 15,31 15,49 0,19 4,36 9,39 15,10 51,85 51,109 0,12 7,31 15,41 8,11 15,41 15,67 0,29 6,51 15,59 9,8 15,30 15,60 0,30 6,52 15,60 12,10 15,38 15,135 0,97 3,125 15,135 12,10 15,37 15,125 0,88 -3,115 -15,125 -12,10 -15,40 -15,151 0,109 -3,141 -15,153 -10,10 -15,35 -15,75 0,40 -5,65 -15,75 -8,8 -15,28 -15,44 0,16 -7,35 -15,42 -8,7 -15,29 -15,50 0,24 -5,40 -15,44 -10,4 -15,19 -15,49 0,36 -17,78 -82,208 -45,90 -92,173 -105,184 -13,11 -23,26 -23,33 0,23 -45,97 -82,134 -21,21 -38,45 -38,53 0,20 -375,395 -394,395 -8,0 -35,20 -60,45 -26,25 -53,45 -62,45 -8,0 -25,10 -37,23 -30,32 -162,97 -197,97 -16,0 -31,4 -34,9 -11,17 -87,51 -115,51 -16,0 -34,7 -41,15 -7,8 -27,15 -45,15 -18,0 -38,7 -45,15 -7,8 -27,15 -45,15 -18,0 -38,7 -45,15 -7,8 -26,15 -42,15 -16,0 -36,7 -44,15 -10,9 -34,15 -63,15 -31,0 -53,5 -61,15 -8,9 -30,15 -60,15 -30,0 -52,6 -60,15 -8,9 -30,15 -60,15 -30,0 -52,6 -60,15 -9,10 -32,15 -75,15 -43,0 -66,5 -75,15 -9,10 -32,15 -75,15 -43,0 -66,5 -75,15 -10,12 -37,15 -120,15 -79,0 -111,4 -119,14 -9,11 -81,14 -396,14 -315,0 -387,-3 -396,-14 z M 3850,5315 c 60,-30 119,-96 161,-179 21,-43 39,-89 39,-102 0,-12 5,-26 10,-29 17,-10 12,-266 -5,-289 -8,-11 -15,-29 -15,-41 0,-26 -64,-157 -85,-175 -9,-7 -22,-28 -30,-46 -7,-18 -22,-41 -32,-51 -10,-11 -27,-36 -38,-57 -11,-21 -25,-41 -32,-43 -7,-3 -13,-11 -13,-19 0,-7 -13,-28 -29,-46 -15,-18 -31,-42 -35,-53 -3,-11 -38,-53 -76,-93 -39,-41 -70,-78 -70,-83 0,-15 -70,-88 -91,-94 -10,-4 -37,-24 -60,-46 -27,-26 -50,-39 -68,-39 -15,0 -36,-7 -47,-15 -27,-21 -271,-21 -298,0 -11,8 -29,15 -41,15 -12,0 -52,15 -91,34 -52,26 -91,57 -161,129 -51,52 -93,101 -93,110 0,8 -6,17 -13,20 -16,6 -67,103 -67,128 0,10 -13,44 -30,74 -16,30 -30,64 -30,75 0,11 -13,43 -28,72 -44,81 -55,157 -50,322 4,126 8,148 27,180 13,20 27,36 32,36 5,0 9,6 9,14 0,7 17,34 38,60 27,33 61,58 125,91 49,25 99,45 112,45 13,0 26,4 29,8 3,5 42,12 87,15 45,4 87,11 93,15 6,5 53,12 104,15 52,3 99,10 105,15 7,5 61,12 122,16 60,4 114,11 120,16 13,11 144,18 280,15 72,-2 110,-8 135,-20 z m 1696,4 c 6,-5 67,-12 135,-15 68,-4 129,-11 135,-15 6,-5 47,-12 90,-15 43,-4 84,-11 91,-16 6,-5 53,-12 105,-15 52,-3 102,-12 113,-19 11,-8 31,-14 46,-14 14,0 38,-11 52,-24 15,-14 36,-28 48,-31 32,-10 157,-142 180,-188 10,-22 22,-62 25,-89 4,-27 11,-51 15,-54 12,-7 11,-151 -1,-159 -5,-3 -10,-18 -10,-33 0,-15 -9,-40 -20,-57 -11,-16 -20,-40 -20,-52 0,-13 -13,-48 -30,-78 -16,-30 -30,-64 -30,-75 0,-11 -13,-45 -30,-75 -16,-30 -30,-64 -30,-73 0,-40 -44,-103 -147,-208 -89,-92 -121,-118 -182,-148 -41,-20 -84,-36 -96,-36 -12,0 -30,-7 -41,-15 -14,-11 -50,-14 -145,-15 -124,0 -126,0 -198,36 -59,29 -94,57 -187,151 -62,64 -116,124 -120,135 -3,10 -23,38 -45,61 -21,23 -42,50 -45,60 -3,10 -16,29 -29,43 -14,15 -27,36 -31,48 -4,11 -20,36 -35,54 -16,18 -29,39 -29,46 0,7 -9,21 -21,32 -11,10 -44,66 -72,123 l -52,106 v 185 c 0,227 4,239 130,364 76,75 91,85 128,89 66,7 341,-4 353,-14 z M 4605,4095 c 20,-8 38,-21 41,-30 3,-8 13,-15 21,-15 19,0 180,-156 189,-182 3,-10 21,-35 40,-56 39,-41 104,-165 104,-196 0,-12 9,-34 20,-51 11,-16 20,-42 20,-57 0,-15 4,-29 9,-32 4,-3 11,-37 15,-76 4,-38 11,-72 17,-75 5,-4 9,-83 9,-183 -1,-140 -4,-181 -15,-196 -8,-11 -15,-36 -15,-56 0,-20 -7,-52 -16,-71 -20,-41 -83,-109 -101,-109 -7,0 -22,-6 -33,-12 -15,-10 -22,-10 -32,0 -6,6 -24,12 -39,12 -31,0 -75,34 -186,145 -90,90 -141,125 -183,125 -27,0 -51,-19 -161,-131 l -130,-131 -77,-1 c -86,-2 -113,12 -126,66 -3,15 -11,27 -16,27 -6,0 -10,11 -10,25 0,13 -8,28 -17,34 -17,9 -18,33 -17,301 0,263 2,293 17,302 11,6 17,22 17,47 0,25 5,41 15,45 8,3 15,15 15,26 0,12 7,28 15,36 8,9 15,24 15,34 0,10 7,20 15,24 8,3 15,17 15,31 0,14 4,25 10,25 5,0 13,12 16,26 4,14 20,39 35,55 16,16 29,37 29,45 0,19 127,144 146,144 7,0 33,20 58,44 25,26 56,46 72,49 68,10 167,6 199,-8 z"
       id="path4"
       style="stroke-width:0.0291051" />
    <path
       d="m 6010,2116 -45,-12 -3,-51 c -2,-29 -9,-57 -17,-63 -11,-9 -15,-36 -15,-105 0,-70 -4,-96 -15,-105 -11,-9 -15,-33 -15,-90 0,-73 -2,-78 -30,-103 -16,-15 -30,-33 -30,-40 0,-19 -187,-207 -205,-207 -8,0 -24,-6 -35,-12 -31,-20 -42,5 -35,82 4,44 1,84 -10,123 -8,32 -15,93 -15,136 0,60 -3,80 -15,85 -15,5 -130,-47 -137,-62 -1,-4 -20,-18 -41,-31 -28,-17 -55,-24 -105,-25 -47,-1 -76,-8 -96,-21 l -29,-19 6,-209 c 5,-208 0,-257 -27,-257 -7,0 -19,-7 -26,-15 -10,-12 -28,-15 -64,-13 l -51,3 2,45 c 10,183 14,420 7,421 -41,4 -118,-1 -162,-11 -41,-8 -57,-8 -68,1 -24,20 -101,15 -127,-9 -22,-20 -22,-23 -15,-179 4,-87 9,-189 10,-228 l 3,-70 h -85 -85 l -1,100 c 0,55 -1,159 -2,231 l -2,130 -72,11 c -40,6 -103,8 -139,6 -51,-4 -72,-1 -92,12 -16,10 -41,15 -69,13 l -43,-3 5,-160 c 7,-233 6,-281 -9,-299 -15,-18 -56,-21 -66,-5 -4,5 -17,14 -29,19 -22,8 -23,15 -30,157 -9,205 -24,303 -48,327 -14,13 -39,20 -86,23 -53,3 -76,10 -110,34 -23,16 -45,29 -48,29 -3,0 -32,14 -66,30 -93,46 -92,48 -84,-202 6,-202 6,-208 -13,-208 -11,0 -23,4 -26,10 -3,5 -14,10 -23,10 -9,0 -32,14 -51,30 -18,17 -40,30 -48,30 -17,0 -173,157 -173,174 0,7 -7,21 -15,32 -8,11 -14,42 -15,75 0,38 -5,61 -15,69 -11,9 -15,35 -15,105 0,70 -4,96 -15,105 -10,8 -15,31 -15,66 0,29 -3,55 -7,57 -5,3 -32,2 -60,0 l -53,-6 v -37 c 0,-21 -7,-43 -15,-50 -22,-19 -22,-471 0,-490 10,-9 15,-32 15,-75 0,-43 5,-66 15,-75 9,-8 15,-29 15,-56 0,-40 30,-117 51,-130 5,-3 9,-16 9,-29 0,-12 7,-25 15,-29 8,-3 15,-16 15,-30 0,-14 4,-27 9,-31 6,-3 21,-29 35,-58 14,-28 43,-72 65,-97 23,-25 41,-50 41,-55 0,-15 173,-185 188,-185 6,0 29,-17 50,-38 41,-41 229,-142 266,-142 11,0 30,-7 40,-15 11,-8 41,-15 67,-15 29,0 51,-6 59,-15 8,-9 30,-15 60,-15 30,0 52,-6 60,-15 9,-11 33,-15 90,-15 57,0 81,-4 90,-15 19,-23 681,-23 700,0 9,11 33,15 90,15 57,0 81,4 90,15 8,9 30,15 60,15 30,0 52,6 60,15 7,8 27,15 44,15 18,0 41,7 52,15 10,8 29,15 41,15 24,0 99,36 109,51 3,5 16,9 29,9 12,0 25,7 29,15 3,8 12,15 20,15 26,0 99,43 141,82 21,21 44,38 50,38 13,0 155,142 155,155 0,6 20,33 45,60 24,28 45,55 45,61 0,6 11,22 23,36 34,37 97,165 97,198 0,15 7,33 15,40 8,7 15,27 15,45 0,18 7,38 15,45 10,9 15,32 15,75 0,43 5,66 15,75 22,18 22,531 1,550 -8,6 -16,32 -18,58 -2,25 -7,46 -13,48 -5,1 -30,-3 -55,-10 z"
       id="path6"
       style="stroke-width:0.0291051" />
  </g>
</svg>
