# Blender 3.4.1
# www.blender.org
o path4544
v -50.000992 0.000000 0.000000
v -48.984566 10.070728 0.000000
v -46.069664 19.452526 0.000000
v -41.457855 27.943871 0.000000
v -35.350704 35.343235 0.000000
v -27.949776 41.449097 0.000000
v -19.456638 46.059933 0.000000
v -10.072859 48.974220 0.000000
v -0.000004 49.990429 0.000000
v 10.072853 48.974216 0.000000
v 19.456633 46.059929 0.000000
v 27.949768 41.449093 0.000000
v 35.350693 35.343231 0.000000
v 41.457844 27.943867 0.000000
v 46.069653 19.452524 0.000000
v 48.984554 10.070727 0.000000
v 50.000984 0.000000 0.000000
v 48.984558 -10.070729 0.000000
v 46.069656 -19.452526 0.000000
v 41.457848 -27.943869 0.000000
v 35.350697 -35.343231 0.000000
v 27.949768 -41.449093 0.000000
v 19.456631 -46.059929 0.000000
v 10.072850 -48.974213 0.000000
v -0.000004 -49.990429 0.000000
v -10.072859 -48.974216 0.000000
v -19.456638 -46.059933 0.000000
v -27.949774 -41.449097 0.000000
v -35.350700 -35.343235 0.000000
v -41.457851 -27.943871 0.000000
v -46.069660 -19.452526 0.000000
v -48.984562 -10.070727 0.000000
vn -0.0000 -0.0000 1.0000
vt 0.000000 0.000000
vt 0.032258 0.000000
vt 0.064516 0.000000
vt 0.096774 0.000000
vt 0.129032 0.000000
vt 0.161290 0.000000
vt 0.193548 0.000000
vt 0.225806 0.000000
vt 0.258065 0.000000
vt 0.290323 0.000000
vt 0.322581 0.000000
vt 0.354839 0.000000
vt 0.387097 0.000000
vt 0.419355 0.000000
vt 0.451613 0.000000
vt 0.483871 0.000000
vt 0.516129 0.000000
vt 0.548387 0.000000
vt 0.580645 0.000000
vt 0.612903 0.000000
vt 0.645161 0.000000
vt 0.677419 0.000000
vt 0.709677 0.000000
vt 0.741935 0.000000
vt 0.774194 0.000000
vt 0.806452 0.000000
vt 0.838710 0.000000
vt 0.870968 0.000000
vt 0.903226 0.000000
vt 0.935484 0.000000
vt 0.967742 0.000000
vt 1.000000 0.000000
s 0
f 8/8/1 10/10/1 9/9/1
f 7/7/1 10/10/1 8/8/1
f 7/7/1 11/11/1 10/10/1
f 6/6/1 11/11/1 7/7/1
f 6/6/1 12/12/1 11/11/1
f 5/5/1 12/12/1 6/6/1
f 5/5/1 13/13/1 12/12/1
f 4/4/1 13/13/1 5/5/1
f 4/4/1 14/14/1 13/13/1
f 3/3/1 14/14/1 4/4/1
f 3/3/1 15/15/1 14/14/1
f 2/2/1 15/15/1 3/3/1
f 2/2/1 16/16/1 15/15/1
f 1/1/1 16/16/1 2/2/1
f 1/1/1 17/17/1 16/16/1
f 32/32/1 17/17/1 1/1/1
f 32/32/1 18/18/1 17/17/1
f 31/31/1 18/18/1 32/32/1
f 31/31/1 19/19/1 18/18/1
f 30/30/1 19/19/1 31/31/1
f 30/30/1 20/20/1 19/19/1
f 30/30/1 21/21/1 20/20/1
f 29/29/1 21/21/1 30/30/1
f 29/29/1 22/22/1 21/21/1
f 28/28/1 22/22/1 29/29/1
f 28/28/1 23/23/1 22/22/1
f 27/27/1 23/23/1 28/28/1
f 27/27/1 24/24/1 23/23/1
f 26/26/1 24/24/1 27/27/1
f 26/26/1 25/25/1 24/24/1
