# Blender 3.4.1
# www.blender.org
o path4544
v -50.000992 0.000000 0.000000
v -49.742687 5.108885 0.000000
v -48.984566 10.070727 0.000000
v -47.751827 14.860337 0.000000
v -46.069664 19.452524 0.000000
v -43.963276 23.822098 0.000000
v -41.457855 27.943867 0.000000
v -38.578598 31.792641 0.000000
v -35.350700 35.343231 0.000000
v -31.799360 38.570446 0.000000
v -27.949772 41.449093 0.000000
v -23.827131 43.953983 0.000000
v -19.456635 46.059929 0.000000
v -14.863478 47.741734 0.000000
v -10.072855 48.974213 0.000000
v -5.109964 49.732170 0.000000
v -0.000004 49.990429 0.000000
v 5.109961 49.732178 0.000000
v 10.072853 48.974216 0.000000
v 14.863476 47.741737 0.000000
v 19.456633 46.059929 0.000000
v 23.827129 43.953983 0.000000
v 27.949768 41.449093 0.000000
v 31.799355 38.570446 0.000000
v 35.350693 35.343231 0.000000
v 38.578587 31.792641 0.000000
v 41.457844 27.943867 0.000000
v 43.963264 23.822098 0.000000
v 46.069653 19.452524 0.000000
v 47.751816 14.860337 0.000000
v 48.984554 10.070727 0.000000
v 49.742676 5.108885 0.000000
v 50.000984 0.000000 0.000000
v 49.742680 -5.108886 0.000000
v 48.984558 -10.070729 0.000000
v 47.751820 -14.860340 0.000000
v 46.069656 -19.452528 0.000000
v 43.963268 -23.822102 0.000000
v 41.457848 -27.943871 0.000000
v 38.578590 -31.792645 0.000000
v 35.350693 -35.343235 0.000000
v 31.799353 -38.570450 0.000000
v 27.949764 -41.449097 0.000000
v 23.827124 -43.953987 0.000000
v 19.456627 -46.059933 0.000000
v 14.863468 -47.741737 0.000000
v 10.072845 -48.974216 0.000000
v 5.109953 -49.732178 0.000000
v -0.000004 -49.990429 0.000000
v -5.109968 -49.732178 0.000000
v -10.072859 -48.974216 0.000000
v -14.863481 -47.741737 0.000000
v -19.456638 -46.059929 0.000000
v -23.827135 -43.953983 0.000000
v -27.949776 -41.449093 0.000000
v -31.799362 -38.570446 0.000000
v -35.350700 -35.343231 0.000000
v -38.578594 -31.792641 0.000000
v -41.457851 -27.943867 0.000000
v -43.963272 -23.822098 0.000000
v -46.069660 -19.452524 0.000000
v -47.751823 -14.860336 0.000000
v -48.984562 -10.070725 0.000000
v -49.742683 -5.108882 0.000000
vn -0.0000 -0.0000 1.0000
vt 0.000000 0.000000
vt 0.015873 0.000000
vt 0.031746 0.000000
vt 0.047619 0.000000
vt 0.063492 0.000000
vt 0.079365 0.000000
vt 0.095238 0.000000
vt 0.111111 0.000000
vt 0.126984 0.000000
vt 0.142857 0.000000
vt 0.158730 0.000000
vt 0.174603 0.000000
vt 0.190476 0.000000
vt 0.206349 0.000000
vt 0.222222 0.000000
vt 0.238095 0.000000
vt 0.253968 0.000000
vt 0.269841 0.000000
vt 0.285714 0.000000
vt 0.301587 0.000000
vt 0.317460 0.000000
vt 0.333333 0.000000
vt 0.349206 0.000000
vt 0.365079 0.000000
vt 0.380952 0.000000
vt 0.396825 0.000000
vt 0.412698 0.000000
vt 0.428571 0.000000
vt 0.444444 0.000000
vt 0.460317 0.000000
vt 0.476190 0.000000
vt 0.492063 0.000000
vt 0.507937 0.000000
vt 0.523810 0.000000
vt 0.539683 0.000000
vt 0.555556 0.000000
vt 0.571429 0.000000
vt 0.587302 0.000000
vt 0.603175 0.000000
vt 0.619048 0.000000
vt 0.634921 0.000000
vt 0.650794 0.000000
vt 0.666667 0.000000
vt 0.682540 0.000000
vt 0.698413 0.000000
vt 0.714286 0.000000
vt 0.730159 0.000000
vt 0.746032 0.000000
vt 0.761905 0.000000
vt 0.777778 0.000000
vt 0.793651 0.000000
vt 0.809524 0.000000
vt 0.825397 0.000000
vt 0.841270 0.000000
vt 0.857143 0.000000
vt 0.873016 0.000000
vt 0.888889 0.000000
vt 0.904762 0.000000
vt 0.920635 0.000000
vt 0.936508 0.000000
vt 0.952381 0.000000
vt 0.968254 0.000000
vt 0.984127 0.000000
vt 1.000000 0.000000
s 0
f 16/16/1 18/18/1 17/17/1
f 16/16/1 19/19/1 18/18/1
f 15/15/1 19/19/1 16/16/1
f 15/15/1 20/20/1 19/19/1
f 14/14/1 20/20/1 15/15/1
f 14/14/1 21/21/1 20/20/1
f 13/13/1 21/21/1 14/14/1
f 12/12/1 21/21/1 13/13/1
f 12/12/1 22/22/1 21/21/1
f 11/11/1 22/22/1 12/12/1
f 11/11/1 23/23/1 22/22/1
f 10/10/1 23/23/1 11/11/1
f 10/10/1 24/24/1 23/23/1
f 9/9/1 24/24/1 10/10/1
f 9/9/1 25/25/1 24/24/1
f 8/8/1 25/25/1 9/9/1
f 8/8/1 26/26/1 25/25/1
f 7/7/1 26/26/1 8/8/1
f 7/7/1 27/27/1 26/26/1
f 6/6/1 27/27/1 7/7/1
f 6/6/1 28/28/1 27/27/1
f 5/5/1 28/28/1 6/6/1
f 5/5/1 29/29/1 28/28/1
f 4/4/1 29/29/1 5/5/1
f 4/4/1 30/30/1 29/29/1
f 3/3/1 30/30/1 4/4/1
f 3/3/1 31/31/1 30/30/1
f 2/2/1 31/31/1 3/3/1
f 2/2/1 32/32/1 31/31/1
f 1/1/1 32/32/1 2/2/1
f 1/1/1 33/33/1 32/32/1
f 64/64/1 33/33/1 1/1/1
f 64/64/1 34/34/1 33/33/1
f 63/63/1 34/34/1 64/64/1
f 63/63/1 35/35/1 34/34/1
f 62/62/1 35/35/1 63/63/1
f 62/62/1 36/36/1 35/35/1
f 61/61/1 36/36/1 62/62/1
f 61/61/1 37/37/1 36/36/1
f 60/60/1 37/37/1 61/61/1
f 60/60/1 38/38/1 37/37/1
f 59/59/1 38/38/1 60/60/1
f 59/59/1 39/39/1 38/38/1
f 58/58/1 39/39/1 59/59/1
f 58/58/1 40/40/1 39/39/1
f 57/57/1 40/40/1 58/58/1
f 57/57/1 41/41/1 40/40/1
f 56/56/1 41/41/1 57/57/1
f 56/56/1 42/42/1 41/41/1
f 55/55/1 42/42/1 56/56/1
f 55/55/1 43/43/1 42/42/1
f 54/54/1 43/43/1 55/55/1
f 54/54/1 44/44/1 43/43/1
f 53/53/1 44/44/1 54/54/1
f 53/53/1 45/45/1 44/44/1
f 52/52/1 45/45/1 53/53/1
f 52/52/1 46/46/1 45/45/1
f 51/51/1 46/46/1 52/52/1
f 51/51/1 47/47/1 46/46/1
f 50/50/1 47/47/1 51/51/1
f 50/50/1 48/48/1 47/47/1
f 49/49/1 48/48/1 50/50/1
