# Blender 3.4.1
# www.blender.org
o path4544
v -50.000992 0.000000 0.000000
v -48.213921 13.284493 0.000000
v -43.171227 25.224800 0.000000
v -35.350700 35.343231 0.000000
v -25.230129 43.162106 0.000000
v -13.287299 48.203732 0.000000
v -0.000004 49.990429 0.000000
v 13.287297 48.203735 0.000000
v 25.230125 43.162109 0.000000
v 35.350693 35.343235 0.000000
v 43.171215 25.224800 0.000000
v 48.213905 13.284492 0.000000
v 50.000984 0.000000 0.000000
v 48.213913 -13.284494 0.000000
v 43.171223 -25.224800 0.000000
v 35.350700 -35.343231 0.000000
v 25.230131 -43.162102 0.000000
v 13.287303 -48.203728 0.000000
v -0.000004 -49.990429 0.000000
v -13.287304 -48.203735 0.000000
v -25.230133 -43.162109 0.000000
v -35.350704 -35.343239 0.000000
v -43.171230 -25.224806 0.000000
v -48.213924 -13.284498 0.000000
vn -0.0000 -0.0000 1.0000
vt 0.000000 0.000000
vt 0.043478 0.000000
vt 0.086957 0.000000
vt 0.130435 0.000000
vt 0.173913 0.000000
vt 0.217391 0.000000
vt 0.260870 0.000000
vt 0.304348 0.000000
vt 0.347826 0.000000
vt 0.391304 0.000000
vt 0.434783 0.000000
vt 0.478261 0.000000
vt 0.521739 0.000000
vt 0.565217 0.000000
vt 0.608696 0.000000
vt 0.652174 0.000000
vt 0.695652 0.000000
vt 0.739130 0.000000
vt 0.782609 0.000000
vt 0.826087 0.000000
vt 0.869565 0.000000
vt 0.913043 0.000000
vt 0.956522 0.000000
vt 1.000000 0.000000
s 0
f 6/6/1 8/8/1 7/7/1
f 6/6/1 9/9/1 8/8/1
f 5/5/1 9/9/1 6/6/1
f 5/5/1 10/10/1 9/9/1
f 4/4/1 10/10/1 5/5/1
f 4/4/1 11/11/1 10/10/1
f 3/3/1 11/11/1 4/4/1
f 2/2/1 11/11/1 3/3/1
f 2/2/1 12/12/1 11/11/1
f 1/1/1 12/12/1 2/2/1
f 1/1/1 13/13/1 12/12/1
f 24/24/1 13/13/1 1/1/1
f 24/24/1 14/14/1 13/13/1
f 24/24/1 15/15/1 14/14/1
f 23/23/1 15/15/1 24/24/1
f 23/23/1 16/16/1 15/15/1
f 22/22/1 16/16/1 23/23/1
f 22/22/1 17/17/1 16/16/1
f 21/21/1 17/17/1 22/22/1
f 21/21/1 18/18/1 17/17/1
f 20/20/1 18/18/1 21/21/1
f 20/20/1 19/19/1 18/18/1
